<!DOCTYPE svg PUBLIC "-//W3C//DTD SVG 1.1//EN" "http://www.w3.org/Graphics/SVG/1.1/DTD/svg11.dtd">
<!-- Uploaded to: SVG Repo, www.svgrepo.com, Transformed by: SVG Repo Mixer Tools -->
<svg width="64px" height="64px" viewBox="0 0 192.00 192.00" xmlns="http://www.w3.org/2000/svg" id="Layer_1" data-name="Layer 1" fill="#4584FB" transform="matrix(1, 0, 0, 1, 0, 0)">
<g id="SVGRepo_bgCarrier" stroke-width="0"/>
<g id="SVGRepo_tracerCarrier" stroke-linecap="round" stroke-linejoin="round" stroke="#CCCCCC" stroke-width="2.304"/>
<g id="SVGRepo_iconCarrier">
<defs>
<style>.cls-2{fill:none;stroke:#4584FB;stroke-linejoin:round;stroke-width:12px}</style>
</defs>
<path d="M0 0h192v192H0z" style="fill:none"/>
<path d="M96 28a19.8 19.8 0 1 1-19.79 19.79A19.82 19.82 0 0 1 96 28m0-12a31.8 31.8 0 1 0 31.79 31.79A31.79 31.79 0 0 0 96 16Z"/>
<path d="M88.89 100h11a32.82 32.82 0 0 1 32.82 32.82v4.31a32.82 32.82 0 0 1-32.81 32.82H46.31a8 8 0 0 1-8-8v-11.36A50.59 50.59 0 0 1 88.89 100Z" class="cls-2"/>
<path d="M92.1 100h28.79a32.82 32.82 0 0 1 32.82 32.82v4.31a32.82 32.82 0 0 1-32.82 32.82H67.23a8 8 0 0 1-8-8v-29.13A32.82 32.82 0 0 1 92.1 100Z" class="cls-2"/>
</g>
</svg>